<svg xmlns="http://www.w3.org/2000/svg" enable-background="new 0 0 24 24" viewBox="0 0 24 24">
  <path fill="#8c8aff" d="M5.493 20h14c.355-.003.706-.07 1.038-.196l-9.917-9.917a3.05 3.05 0 0 0-4.238-.005l-3.59 3.58a1 1 0 0 0-.293.708V17a3.003 3.003 0 0 0 3 3z"/>
  <path fill="#d8d8ff" d="m22.199 15.462-3.585-3.575a3.05 3.05 0 0 0-4.237-.006l-.887.882 7.04 7.04A2.996 2.996 0 0 0 22.494 17v-.83a1 1 0 0 0-.294-.708z"/>
  <path fill="#b2b1ff" d="M19.493 4h-14a3.003 3.003 0 0 0-3 3v7.17a1 1 0 0 1 .294-.708l3.59-3.58a3.05 3.05 0 0 1 4.237.005l2.876 2.876.888-.882a3.05 3.05 0 0 1 4.236.006l3.585 3.575a1 1 0 0 1 .294.708V7a3.003 3.003 0 0 0-3-3z"/>
  <path fill="#6563ff" d="M20.493 22a.997.997 0 0 1-.707-.293l-18-18A1 1 0 0 1 3.2 2.293l18 18A1 1 0 0 1 20.493 22z"/>
</svg>
